<?xml version="1.0" encoding="UTF-8"?>
<!DOCTYPE svg PUBLIC "-//W3C//DTD SVG 1.1//EN" "http://www.w3.org/Graphics/SVG/1.1/DTD/svg11.dtd">
<!-- Creator: CorelDRAW 2018 (64-Bit) -->
<svg xmlns="http://www.w3.org/2000/svg" xml:space="preserve" width="3709px" height="635px" version="1.1" style="shape-rendering:geometricPrecision; text-rendering:geometricPrecision; image-rendering:optimizeQuality; fill-rule:evenodd; clip-rule:evenodd"
viewBox="0 0 595.97 102.11"
 xmlns:xlink="http://www.w3.org/1999/xlink">
 <defs>
  <style type="text/css">
   <![CDATA[
    .fil0 {fill:#364F6B}
   ]]>
  </style>
 </defs>
 <g id="Layer_x0020_1">
  <metadata id="CorelCorpID_0Corel-Layer"/>
  <path class="fil0" d="M68.19 10.35l34.27 0c1.07,0 6.28,5.47 7.47,6.46l0.58 0.49c0.33,0.27 0.31,0.24 0.58,0.49 0.53,0.45 0.78,0.71 1.28,1.22 2.01,2.02 8.71,7.68 9.73,9.19l-20.45 22.4c-1.04,1.04 -1.32,1.67 -2.3,2.69 -2.41,2.51 -12.62,13.96 -14.02,14.9 -1.83,-1.22 -2.92,-3.12 -4.55,-4.73l-13.81 -15.11c-1.73,-2.25 -9.32,-9.78 -11.43,-12.5l-4.57 -5.06c-0.92,-0.91 -1.62,-1.67 -2.42,-2.59 0.94,-1.39 14.41,-13.22 16.88,-15.61 0.69,-0.66 1.72,-2.24 2.76,-2.24zm49.62 0l17.52 -0.01c3.71,-0.04 2.17,0.35 4.77,2.36l16.63 15.5c-0.92,1.37 -2.22,2.21 -3.27,3.52l-6.81 7.47c-0.72,0.81 -0.8,1.13 -1.61,1.96l-33.91 37.13c-0.66,0.69 -1.16,1.09 -1.8,1.78 -0.75,0.81 -0.84,1.15 -1.6,1.97l-5.27 5.44c-1.55,-2.32 -9.07,-9.88 -10.35,-11.78 1.13,-0.76 2.04,-1.79 2.86,-2.86l35.79 -39.18c0.53,-0.53 0.93,-0.88 1.42,-1.43 0.63,-0.71 0.63,-0.89 1.26,-1.6 1.02,-1.16 2.11,-1.9 2.94,-3.13l-9.38 -8.47c-0.81,-0.78 -1.33,-1.37 -2.13,-2.16l-4.64 -4.28c-0.78,-0.78 -1.94,-1.58 -2.42,-2.23zm-83.18 17.14c0.85,1.6 1.32,1.87 2.59,3.12l35.76 39.21c0.87,1.13 4.34,4.4 5.56,6.22 -0.85,0.98 -1.61,1.8 -2.59,2.77l-5.31 5.75c-0.97,1.21 -1.52,2.05 -2.81,2.91 -2.39,-3.58 -17.05,-18.34 -20.14,-22.34l-15.12 -16.66c-0.6,-0.69 -1.13,-1.13 -1.78,-1.78l-16.87 -18.84 18.27 -16.72c1.42,-1.32 2.74,-0.78 6.37,-0.78 4.76,0 9.52,0 14.28,0l-15.8 14.91c-1.01,0.94 -1.65,1.09 -2.41,2.23zm-34.63 0l19.02 20.97c0.93,0.97 1.16,1.54 2.13,2.51l17.14 18.56c0.83,0.94 0.99,1.37 1.96,2.32l19.29 21.06c1.69,1.71 6.98,8.08 8.65,9.2 0.69,-0.51 1.25,-1.44 2.05,-2.24l4.29 -4.63c1.03,-1.01 1.25,-1.49 2.14,-2.5l8.66 -9.2 8.84 9.37c0.84,0.91 1.03,1.4 1.95,2.33 0.86,0.87 1.49,1.37 2.27,2.38 1.06,1.38 3.14,4.05 4.79,4.49 0.32,-1.21 1.04,-1.61 1.87,-2.41 0.98,-0.96 1.18,-1.26 2,-2.29l21.37 -23.26c0.84,-1.01 1,-1.34 1.98,-2.3l20.16 -21.97c0.28,-0.31 0.28,-0.32 0.49,-0.58 2.08,-2.46 19.21,-20.34 19.6,-21.81l-12.94 -12.05c-0.67,-0.59 -1.14,-1.13 -1.78,-1.78 -0.64,-0.65 -1.11,-1.2 -1.81,-1.77l-5.6 -5.11c-1.3,-0.99 -6.7,-6.78 -7.86,-6.78l-110.67 0c-1.16,0 -2.96,2.53 -3.84,3.3l-24.11 22.3c-1.07,0.89 -1.24,0.7 -2.04,1.89z"/>
  <path class="fil0" d="M500.07 19.5c2.12,0.56 1.41,1.09 3.92,1.68l0 33.58c-6.08,3.21 -3.5,2.21 -3.36,8.39 13.33,0 16.29,1.7 15.31,-5.13l-1.45 -2c-0.72,-0.54 -1.84,-1.07 -2.17,-1.5l-0.49 -22.13c-0.05,-3.37 -0.57,-4.16 -0.57,-7.29 0.94,1.35 1.17,3.14 1.84,4.88 2.44,6.42 4.08,8.62 7.12,14.7l7.47 14.36c2.55,5.16 0.16,4.11 13.8,4.11l0 -41.97c5.87,-1.37 3.43,-5.01 3.35,-8.4l-14.55 0c-0.6,2.58 -0.56,3.47 -0.56,6.72 1.63,0.43 2.18,1.32 3.92,2.24l-0.02 21.84c0.01,3.38 0.58,4.07 0.58,7.26 -0.07,-0.12 -0.15,-0.46 -0.18,-0.38l-0.75 -2.05c-2.77,-8.74 -4.38,-9.85 -7.84,-16.78 -2.93,-5.85 -6.36,-13.86 -9.7,-18.85l-15.11 0c-0.2,2.41 -0.56,3.47 -0.56,6.72z"/>
  <path class="fil0" d="M93.18 28.2c-0.96,1.44 -17.86,19.31 -19.28,21.42 0.56,0.84 0.95,1.07 1.63,1.94 0.74,0.94 0.84,1.09 1.67,1.9 2.57,2.52 1.83,3.14 3.84,3.31 0.35,-1.32 9.9,-11.05 11.75,-13.25l1.37 -1.49c0.62,-0.61 1.01,-0.96 1.62,-1.59l11.68 -12.95c-1.77,-1.19 -6.28,-5.92 -7.77,-7.23 -1.07,-0.94 -1.6,-1.23 -2.67,-2.32 -2.93,-2.96 -1.63,-2.96 -7.05,-2.95 -3.45,0.01 -6.91,0 -10.36,0 0.29,1.06 3.69,3.95 4.73,4.92 1.79,1.66 7.89,6.88 8.84,8.29z"/>
  <path class="fil0" d="M420.6 54.76l-6.72 0 0 -33.58c12.77,0 16.79,4 16.79,19.03 0,3.76 -0.6,7.81 -2.09,10.22 -1.46,2.37 -4.35,4.33 -7.98,4.33zm-21.37 -36.39c-0.15,1.84 2.81,2.73 4.02,3.37l0 33.02c-6.12,1.42 -3.36,3.27 -3.36,8.39l21.83 0c10.96,0 20.15,-9.06 20.15,-21.26 0,-9.73 -0.51,-19.6 -10.44,-25.38 -1.29,-0.75 -2.99,-1.52 -4.18,-1.98 -6.8,-2.62 -19.1,-1.75 -27.36,-1.75l-0.66 5.59z"/>
  <path class="fil0" d="M189.45 34.61c0,11.48 -0.02,29.1 17.35,29.1 11.81,0 11.49,0.7 21.27,-4.47l0 -13.44c1.13,-0.75 2.23,-1.48 3.36,-2.24 -0.23,-2.71 -0.56,-1.47 -0.56,-6.15l-17.91 0c0,3.1 -0.51,3.72 -0.56,6.15 1.88,1.27 1.5,2 4.48,2.24l0 8.4c-2.75,0.64 -3.28,1.12 -6.72,1.12 -11.86,0 -11.86,-26.27 -5.49,-32.36 3.84,-3.68 7.72,-1.64 12.77,-1.22 0,3.62 0.48,3.44 1.12,6.15l7.27 0c1.23,-5.26 1.68,-3.23 1.68,-10.07 0,-6.13 -38.06,-13.85 -38.06,16.79z"/>
  <path class="fil0" d="M453.52 18.37c-0.15,1.84 2.81,2.73 4.02,3.37l0 33.02c-6.12,1.42 -3.36,3.27 -3.36,8.39l34.14 0 0 -12.87c-2.53,-0.06 -2.23,-0.56 -5.04,-0.56 -3.15,0 -1.56,5.04 -4.48,5.04l-10.63 0 0 -13.43 10.07 0c0.4,1.71 0.87,2.15 1.68,3.35 2.16,-0.18 2.21,-0.56 5.04,-0.56l0 -13.43 -4.46 -0.65c-1.42,-0.14 -1.2,2.89 -3.38,2.89l-8.95 0 0 -11.75 10.07 0c4.33,0 -1.53,7.05 9.52,4.47l0 -12.87 -33.58 0 -0.66 5.59z"/>
  <path class="fil0" d="M347.84 32.37c1.53,1.02 1.54,1.25 3.38,2.22 3.08,1.62 4.07,6.32 6.45,12.01 5.19,12.39 8.93,16.11 5.29,22.16 -0.89,1.47 -1.69,2.6 -3.93,2.79 0,-6.44 -0.94,-5.6 -6.15,-5.6 -2.23,0 -6.89,12.31 3.91,12.31 7.1,0 9.84,-0.56 13.82,-8.56l14.17 -33.41c2.38,-3.7 6.67,-0.08 4.48,-9.52l-16.23 0c-1.04,4.43 -1.38,6.87 2.79,7.84 -0.32,3.92 -5.48,13.18 -5.59,18.47 -1.23,-0.9 -2.14,-5.57 -3.29,-9.03 -0.58,-1.76 -1.13,-3.04 -1.67,-4.48 -0.65,-1.74 -1.02,-3.43 -1.76,-4.96 1.79,-0.95 1.89,-1.25 3.36,-2.24 -3,-6.24 6.39,-5.6 -16.79,-5.6 -2.84,0 -1.01,3.04 -2.24,5.6z"/>
  <path class="fil0" d="M554.92 22.3c0,2.05 1.19,1.68 3.92,1.68 2.79,0 1.35,-2.8 3.91,-2.8l7.28 0 0 33.58c-5.75,1.34 -3.72,4.1 -3.36,8.39l17.35 0c0.1,-4.45 2.63,-7 -3.36,-8.39l0 -33.58 7.28 0c3.54,0 -0.92,2.8 6.16,2.8 2.71,0 1.67,-4.08 1.67,-11.2l-40.85 0 0 9.52z"/>
  <path class="fil0" d="M287.4 55.88c-6.12,0 -7.84,-3.77 -7.84,-11.2 0,-1.19 0.76,-6.06 1.02,-6.82 1.97,-5.77 12.87,-6.63 12.81,6.82 -0.02,4.77 -0.86,11.2 -5.99,11.2zm-18.47 -11.76c0,15.98 5.82,19.59 19.03,19.59 21.04,0 21.95,-37.5 1.67,-37.5l-5.03 0c-9.65,0 -15.67,8.11 -15.67,17.91z"/>
  <path class="fil0" d="M241.5 11.1c-0.43,1.85 -0.45,4.76 -1.12,6.16 1.46,0.98 2.37,2.06 4.48,2.24l0 35.26c-0.76,0.4 -1.48,0.68 -2.22,1.14 -1.06,0.65 -1.22,0.96 -2.26,1.66 0.63,1.3 0.73,3.91 1.12,5.59 21.6,0 16.28,1.4 17.91,-5.59 -1.82,-1.23 -1.29,-1.63 -3.92,-2.24l0.04 -40.33c0.08,-5.28 1.01,-4.45 -8.99,-4.45 -2.81,0 -2.5,0.5 -5.04,0.56z"/>
  <path class="fil0" d="M314.82 32.93c1.67,0.88 1.87,1.51 3.92,1.68l0 20.71c-2.05,0.17 -2.25,0.79 -3.92,1.68 0,2.83 0.56,3.05 0.56,6.15l21.27 0c2.82,-12.12 -7.28,-5.36 -7.28,-10.07 0,-14.59 -2.25,-17.35 8.4,-17.35 1.28,0 0.65,0.19 2.23,0.56 0.96,-4.09 0.56,-5.2 0.56,-10.08 -7.8,-0.17 -5.9,-0.37 -12.31,3.92l0 -4.48c-2.29,0 -10.59,-0.07 -12.02,0.86 -1.42,0.93 -1.41,4.14 -1.41,6.42z"/>
 </g>
</svg>
